<?xml version="1.0" encoding="utf-8"?><svg xmlns="http://www.w3.org/2000/svg" xmlns:xlink="http://www.w3.org/1999/xlink" width="200px" height="200px" viewBox="0 0 100 100" preserveAspectRatio="xMidYMid" style="display:block;animation-play-state:paused" ><g transform="rotate(0 50 50)" style="animation-play-state:paused" ><rect x="45.5" y="29" rx="4.5" ry="10" width="9" height="20" fill="#009cff" opacity="0.059" style="opacity:0.059;animation-play-state:paused" ></rect></g>
<g transform="rotate(21.176470588235293 50 50)" style="animation-play-state:paused" ><rect x="45.5" y="29" rx="4.5" ry="10" width="9" height="20" fill="#009cff" opacity="0.118" style="opacity:0.118;animation-play-state:paused" ></rect></g>
<g transform="rotate(42.35294117647059 50 50)" style="animation-play-state:paused" ><rect x="45.5" y="29" rx="4.5" ry="10" width="9" height="20" fill="#009cff" opacity="0.176" style="opacity:0.176;animation-play-state:paused" ></rect></g>
<g transform="rotate(63.529411764705884 50 50)" style="animation-play-state:paused" ><rect x="45.5" y="29" rx="4.5" ry="10" width="9" height="20" fill="#009cff" opacity="0.235" style="opacity:0.235;animation-play-state:paused" ></rect></g>
<g transform="rotate(84.70588235294117 50 50)" style="animation-play-state:paused" ><rect x="45.5" y="29" rx="4.5" ry="10" width="9" height="20" fill="#009cff" opacity="0.294" style="opacity:0.294;animation-play-state:paused" ></rect></g>
<g transform="rotate(105.88235294117646 50 50)" style="animation-play-state:paused" ><rect x="45.5" y="29" rx="4.5" ry="10" width="9" height="20" fill="#009cff" opacity="0.353" style="opacity:0.353;animation-play-state:paused" ></rect></g>
<g transform="rotate(127.05882352941177 50 50)" style="animation-play-state:paused" ><rect x="45.5" y="29" rx="4.5" ry="10" width="9" height="20" fill="#009cff" opacity="0.412" style="opacity:0.412;animation-play-state:paused" ></rect></g>
<g transform="rotate(148.23529411764707 50 50)" style="animation-play-state:paused" ><rect x="45.5" y="29" rx="4.5" ry="10" width="9" height="20" fill="#009cff" opacity="0.471" style="opacity:0.471;animation-play-state:paused" ></rect></g>
<g transform="rotate(169.41176470588235 50 50)" style="animation-play-state:paused" ><rect x="45.5" y="29" rx="4.5" ry="10" width="9" height="20" fill="#009cff" opacity="0.529" style="opacity:0.529;animation-play-state:paused" ></rect></g>
<g transform="rotate(190.58823529411765 50 50)" style="animation-play-state:paused" ><rect x="45.5" y="29" rx="4.5" ry="10" width="9" height="20" fill="#009cff" opacity="0.588" style="opacity:0.588;animation-play-state:paused" ></rect></g>
<g transform="rotate(211.76470588235293 50 50)" style="animation-play-state:paused" ><rect x="45.5" y="29" rx="4.5" ry="10" width="9" height="20" fill="#009cff" opacity="0.647" style="opacity:0.647;animation-play-state:paused" ></rect></g>
<g transform="rotate(232.94117647058823 50 50)" style="animation-play-state:paused" ><rect x="45.5" y="29" rx="4.5" ry="10" width="9" height="20" fill="#009cff" opacity="0.706" style="opacity:0.706;animation-play-state:paused" ></rect></g>
<g transform="rotate(254.11764705882354 50 50)" style="animation-play-state:paused" ><rect x="45.5" y="29" rx="4.5" ry="10" width="9" height="20" fill="#009cff" opacity="0.765" style="opacity:0.765;animation-play-state:paused" ></rect></g>
<g transform="rotate(275.29411764705884 50 50)" style="animation-play-state:paused" ><rect x="45.5" y="29" rx="4.5" ry="10" width="9" height="20" fill="#009cff" opacity="0.824" style="opacity:0.824;animation-play-state:paused" ></rect></g>
<g transform="rotate(296.47058823529414 50 50)" style="animation-play-state:paused" ><rect x="45.5" y="29" rx="4.5" ry="10" width="9" height="20" fill="#009cff" opacity="0.882" style="opacity:0.882;animation-play-state:paused" ></rect></g>
<g transform="rotate(317.6470588235294 50 50)" style="animation-play-state:paused" ><rect x="45.5" y="29" rx="4.5" ry="10" width="9" height="20" fill="#009cff" opacity="0.941" style="opacity:0.941;animation-play-state:paused" ></rect></g>
<g transform="rotate(338.8235294117647 50 50)" style="animation-play-state:paused" ><rect x="45.5" y="29" rx="4.5" ry="10" width="9" height="20" fill="#009cff" opacity="1" style="animation-play-state:paused" ></rect></g><!-- generated by https://loading.io/ --></svg>